<svg width="180" height="45" viewBox="0 0 180 45" fill="none" xmlns="http://www.w3.org/2000/svg">
<g clip-path="url(#clip0_9864_1374)">
<path d="M54.7183 11.0925C52.8629 8.78745 49.848 7.63492 46.3691 7.63492C39.4115 7.63492 34.5411 12.7061 34.5411 20.0823C34.5411 27.4585 39.6434 32.5296 47.2968 32.5296C52.0976 32.5296 52.8629 31.8381 54.9502 30.6856V25.3839L54.4864 25.8449C52.8629 27.228 50.0799 28.15 47.5287 28.15C43.3542 28.15 40.3392 25.8449 39.6434 21.9263H57.2694C57.9652 17.3162 57.2694 13.8586 54.9502 11.323L54.7183 11.0925ZM39.6434 17.5467C40.3392 14.0891 42.8903 12.0145 46.3691 12.0145C49.848 12.0145 52.1672 14.0891 52.3991 17.5467H39.6434Z" fill="#DAE684"/>
<path d="M90.8979 7.63451C87.8829 7.63451 85.3317 8.78704 83.7083 10.8616V0.258301H78.8379V32.2987H83.2444V29.0716C84.8679 31.3767 87.651 32.5292 90.8979 32.5292C97.3916 32.5292 102.03 27.4581 102.03 20.3124C102.03 13.1667 97.3916 7.63451 90.8979 7.63451ZM90.434 27.6886C86.4913 27.6886 83.7083 24.4615 83.7083 19.8514C83.7083 15.2412 86.4913 12.0141 90.434 12.0141C94.3767 12.0141 97.1597 15.0107 97.1597 19.8514C97.1597 24.692 94.3767 27.6886 90.434 27.6886Z" fill="#DAE684"/>
<path d="M115.715 7.63492C108.526 7.63492 103.655 12.7061 103.655 20.0823C103.655 27.4585 108.758 32.5296 115.715 32.5296C122.673 32.5296 127.775 27.4585 127.775 20.0823C127.775 12.7061 122.905 7.63492 115.715 7.63492ZM115.715 27.689C111.541 27.689 108.526 24.4619 108.526 19.8518C108.526 15.2416 111.309 12.0145 115.715 12.0145C120.122 12.0145 122.905 15.2416 122.905 19.8518C122.905 24.4619 119.89 27.689 115.715 27.689Z" fill="#DAE684"/>
<path d="M139.604 7.63451C137.285 7.63451 135.429 8.32603 134.27 9.93958V0.258301H129.399V32.2987H134.27V16.8548C134.27 14.0887 135.893 12.2446 138.676 12.2446C141.459 12.2446 142.851 14.0887 142.851 16.8548V32.2987H147.489V16.1633C147.489 11.0921 144.242 7.63451 139.604 7.63451Z" fill="#DAE684"/>
<path d="M172.536 7.63492C169.753 7.63492 167.434 8.78745 166.043 11.0925C164.883 9.01796 162.564 7.63492 159.781 7.63492C156.998 7.63492 155.606 8.55695 154.215 10.1705V7.86542H149.808V32.2991H154.678V16.8552C154.678 14.0891 156.302 12.2451 158.621 12.2451C160.94 12.2451 162.564 14.0891 162.564 16.8552V32.2991H167.202V17.0857C167.202 14.3196 168.826 12.4756 171.145 12.4756C173.464 12.4756 175.088 14.3196 175.088 17.0857V32.2991H179.726V16.3942C179.726 11.323 177.175 7.63492 172.536 7.63492Z" fill="#DAE684"/>
<path d="M103.655 41.2833C103.655 39.2151 105.054 37.8073 107.293 37.8073C109.129 37.8073 110.3 38.7284 110.58 40.1884L109.269 40.3796C109.076 39.4063 108.377 38.8153 107.258 38.8153C105.841 38.8153 104.984 39.7713 104.984 41.266C104.984 42.7607 105.841 43.7166 107.275 43.7166C108.342 43.7166 109.059 43.1778 109.304 42.2219L110.58 42.4652C110.195 43.8383 109.059 44.7247 107.24 44.7247C104.932 44.7247 103.655 43.2995 103.655 41.2486V41.2833Z" fill="#FAF9F7"/>
<path d="M111.769 41.2834C111.769 39.163 113.22 37.8073 115.423 37.8073C117.627 37.8073 119.078 39.163 119.078 41.2834C119.078 43.4038 117.627 44.7595 115.423 44.7595C113.22 44.7595 111.769 43.3864 111.769 41.2834ZM117.749 41.2834C117.749 39.7713 116.84 38.8154 115.423 38.8154C114.007 38.8154 113.08 39.7713 113.08 41.2834C113.08 42.7955 113.989 43.7514 115.423 43.7514C116.857 43.7514 117.749 42.7955 117.749 41.2834Z" fill="#FAF9F7"/>
<path d="M122.611 38.016L124.43 42.6218C124.517 42.8825 124.57 43.0736 124.605 43.2822H124.64C124.675 43.0736 124.727 42.8998 124.832 42.6218L126.651 38.0333H128.504V44.6031H127.35V39.8235C127.35 39.5628 127.35 39.2847 127.385 39.0588H127.35C127.315 39.2152 127.21 39.5454 127.123 39.7888L125.199 44.6031H124.028L122.104 39.7714C122.017 39.5454 121.929 39.2326 121.894 39.0414H121.859C121.894 39.25 121.912 39.5107 121.912 39.8061V44.5857H120.792V38.016H122.629H122.611Z" fill="#FAF9F7"/>
<path d="M132.509 38.016L134.328 42.6218C134.415 42.8825 134.468 43.0736 134.502 43.2822H134.537C134.572 43.0736 134.625 42.8998 134.73 42.6218L136.548 38.0333H138.402V44.6031H137.23V39.8235C137.23 39.5628 137.23 39.2847 137.265 39.0588H137.23C137.195 39.2152 137.108 39.5454 137.003 39.7888L135.08 44.6031H133.908L131.984 39.7714C131.897 39.5454 131.809 39.2326 131.774 39.0414H131.74C131.774 39.25 131.792 39.5107 131.792 39.8061V44.5857H130.673V38.016H132.509Z" fill="#FAF9F7"/>
<path d="M145.816 44.5688H140.553V37.999H145.747V38.9723H141.829V40.7451H145.589V41.6836H141.829V43.5955H145.816V44.5688Z" fill="#FAF9F7"/>
<path d="M148.947 41.9961V44.5857H147.67V38.016H151.063C152.881 38.016 153.459 38.9719 153.459 39.9973C153.459 40.7621 153.056 41.5616 151.972 41.8396L153.668 44.5857H152.234L150.661 41.9961H148.964H148.947ZM150.836 41.0749C151.797 41.0749 152.13 40.5709 152.13 39.9973C152.13 39.4238 151.797 38.9545 150.836 38.9545H148.947V41.0749H150.836Z" fill="#FAF9F7"/>
<path d="M154.788 41.2834C154.788 39.2152 156.186 37.8073 158.425 37.8073C160.261 37.8073 161.433 38.7285 161.712 40.1884L160.401 40.3796C160.208 39.4063 159.509 38.8154 158.39 38.8154C156.973 38.8154 156.117 39.7713 156.117 41.266C156.117 42.7607 156.973 43.7167 158.407 43.7167C159.474 43.7167 160.191 43.1779 160.436 42.2219L161.712 42.4653C161.328 43.8383 160.191 44.7247 158.372 44.7247C156.064 44.7247 154.788 43.2995 154.788 41.2486V41.2834Z" fill="#FAF9F7"/>
<path d="M163.39 38.016H164.667V44.5857H163.39V38.016Z" fill="#FAF9F7"/>
<path d="M168.077 42.9867L167.412 44.5857H166.083L169.003 38.016H170.42L173.323 44.5857H171.994L171.329 42.9867H168.059H168.077ZM169.983 39.7366C169.895 39.5281 169.79 39.2326 169.72 38.9719H169.703C169.633 39.2326 169.528 39.5281 169.441 39.7366L168.479 42.0656H170.962L170 39.7366H169.983Z" fill="#FAF9F7"/>
<path d="M176.034 38.016V43.5429H179.724V44.5857H174.757V38.016H176.034Z" fill="#FAF9F7"/>
<path d="M32.8724 0.258301V32.2987H28.1876V7.2196L19.5601 32.2987H13.2983V7.2196L4.6708 32.2987H0.101944L9.70349 3.16268C10.2833 1.43388 11.9067 0.258301 13.7389 0.258301C16.0813 0.258301 17.9831 2.14846 17.9831 4.47657V23.2168L25.5437 0.258301H32.8724Z" fill="#DAE684"/>
<path d="M77.7712 7.86526L67.8218 38.0616H62.8587L64.7604 32.322L56.6895 7.86526H61.6527L67.242 24.7845L72.8081 7.86526H77.7712Z" fill="#DAE684"/>
</g>
<defs>
<clipPath id="clip0_9864_1374">
<rect width="180" height="44.9209" fill="white"/>
</clipPath>
</defs>
</svg>
