<svg width="180" height="45" viewBox="0 0 180 45" fill="none" xmlns="http://www.w3.org/2000/svg">
<path d="M54.6166 10.8326C52.7612 8.52753 49.7463 7.375 46.2674 7.375C39.3098 7.375 34.4395 12.4461 34.4395 19.8224C34.4395 27.1986 39.5417 32.2697 47.1951 32.2697C51.9959 32.2697 52.7612 31.5782 54.8485 30.4257V25.124L54.3847 25.585C52.7612 26.9681 49.9782 27.8901 47.4271 27.8901C43.2525 27.8901 40.2375 25.585 39.5417 21.6664H57.1677C57.8635 17.0563 57.1677 13.5987 54.8485 11.0631L54.6166 10.8326ZM39.5417 17.2868C40.2375 13.8292 42.7886 11.7546 46.2674 11.7546C49.7463 11.7546 52.0655 13.8292 52.2974 17.2868H39.5417Z" fill="#1C2F29"/>
<path d="M90.7962 7.37621C87.7813 7.37621 85.2301 8.52874 83.6067 10.6033V0H78.7363V32.0404H83.1428V28.8133C84.7663 31.1184 87.5493 32.2709 90.7962 32.2709C97.29 32.2709 101.928 27.1998 101.928 20.0541C101.928 12.9084 97.29 7.37621 90.7962 7.37621ZM90.3324 27.4303C86.3897 27.4303 83.6067 24.2032 83.6067 19.5931C83.6067 14.9829 86.3897 11.7558 90.3324 11.7558C94.2751 11.7558 97.0581 14.7524 97.0581 19.5931C97.0581 24.4337 94.2751 27.4303 90.3324 27.4303Z" fill="#1C2F29"/>
<path d="M115.614 7.375C108.424 7.375 103.554 12.4461 103.554 19.8224C103.554 27.1986 108.656 32.2697 115.614 32.2697C122.571 32.2697 127.674 27.1986 127.674 19.8224C127.674 12.4461 122.803 7.375 115.614 7.375ZM115.614 27.4291C111.439 27.4291 108.424 24.202 108.424 19.5919C108.424 14.9817 111.207 11.7546 115.614 11.7546C120.02 11.7546 122.803 14.9817 122.803 19.5919C122.803 24.202 119.788 27.4291 115.614 27.4291Z" fill="#1C2F29"/>
<path d="M139.501 7.37621C137.182 7.37621 135.327 8.06773 134.167 9.68128V0H129.297V32.0404H134.167V16.5965C134.167 13.8304 135.791 11.9863 138.574 11.9863C141.357 11.9863 142.748 13.8304 142.748 16.5965V32.0404H147.387V15.905C147.387 10.8338 144.14 7.37621 139.501 7.37621Z" fill="#1C2F29"/>
<path d="M172.434 7.375C169.651 7.375 167.332 8.52753 165.941 10.8326C164.781 8.75804 162.462 7.375 159.679 7.375C156.896 7.375 155.504 8.29703 154.113 9.91057V7.60551H149.706V32.0392H154.576V16.5953C154.576 13.8292 156.2 11.9851 158.519 11.9851C160.838 11.9851 162.462 13.8292 162.462 16.5953V32.0392H167.1V16.8258C167.1 14.0597 168.724 12.2156 171.043 12.2156C173.362 12.2156 174.985 14.0597 174.985 16.8258V32.0392H179.624V16.1343C179.624 11.0631 177.073 7.375 172.434 7.375Z" fill="#1C2F29"/>
<path d="M103.554 41.0268C103.554 38.9586 104.953 37.5508 107.191 37.5508C109.027 37.5508 110.199 38.4719 110.479 39.9319L109.167 40.1231C108.975 39.1498 108.275 38.5588 107.156 38.5588C105.74 38.5588 104.883 39.5148 104.883 41.0095C104.883 42.5042 105.74 43.4601 107.174 43.4601C108.24 43.4601 108.957 42.9213 109.202 41.9654L110.479 42.2087C110.094 43.5818 108.957 44.4682 107.139 44.4682C104.83 44.4682 103.554 43.043 103.554 40.9921V41.0268Z" fill="#1C2F29"/>
<path d="M111.667 41.0269C111.667 38.9064 113.118 37.5508 115.322 37.5508C117.525 37.5508 118.977 38.9064 118.977 41.0269C118.977 43.1473 117.525 44.5029 115.322 44.5029C113.118 44.5029 111.667 43.1299 111.667 41.0269ZM117.648 41.0269C117.648 39.5148 116.738 38.5588 115.322 38.5588C113.905 38.5588 112.979 39.5148 112.979 41.0269C112.979 42.5389 113.888 43.4949 115.322 43.4949C116.756 43.4949 117.648 42.5389 117.648 41.0269Z" fill="#1C2F29"/>
<path d="M122.509 37.7578L124.328 42.3636C124.415 42.6243 124.468 42.8155 124.503 43.0241H124.538C124.573 42.8155 124.625 42.6417 124.73 42.3636L126.549 37.7752H128.402V44.345H127.248V39.5654C127.248 39.3047 127.248 39.0266 127.283 38.8006H127.248C127.213 38.9571 127.108 39.2873 127.021 39.5306L125.097 44.345H123.926L122.002 39.5132C121.915 39.2873 121.827 38.9744 121.792 38.7833H121.757C121.792 38.9918 121.81 39.2525 121.81 39.548V44.3276H120.69V37.7578H122.527H122.509Z" fill="#1C2F29"/>
<path d="M132.407 37.7578L134.226 42.3636C134.314 42.6243 134.366 42.8155 134.401 43.0241H134.436C134.471 42.8155 134.523 42.6417 134.628 42.3636L136.447 37.7752H138.301V44.345H137.129V39.5654C137.129 39.3047 137.129 39.0266 137.164 38.8006H137.129C137.094 38.9571 137.007 39.2873 136.902 39.5306L134.978 44.345H133.806L131.883 39.5132C131.795 39.2873 131.708 38.9744 131.673 38.7833H131.638C131.673 38.9918 131.69 39.2525 131.69 39.548V44.3276H130.571V37.7578H132.407Z" fill="#1C2F29"/>
<path d="M145.715 44.312H140.451V37.7422H145.645V38.7155H141.728V40.4883H145.487V41.4268H141.728V43.3387H145.715V44.312Z" fill="#1C2F29"/>
<path d="M148.845 41.7379V44.3276H147.568V37.7578H150.961C152.779 37.7578 153.357 38.7137 153.357 39.7392C153.357 40.5039 152.954 41.3034 151.87 41.5815L153.566 44.3276H152.132L150.559 41.7379H148.862H148.845ZM150.734 40.8168C151.695 40.8168 152.028 40.3127 152.028 39.7392C152.028 39.1656 151.695 38.6964 150.734 38.6964H148.845V40.8168H150.734Z" fill="#1C2F29"/>
<path d="M154.686 41.0268C154.686 38.9586 156.085 37.5508 158.323 37.5508C160.159 37.5508 161.331 38.4719 161.61 39.9319L160.299 40.1231C160.107 39.1498 159.407 38.5588 158.288 38.5588C156.871 38.5588 156.015 39.5148 156.015 41.0095C156.015 42.5042 156.871 43.4601 158.305 43.4601C159.372 43.4601 160.089 42.9213 160.334 41.9654L161.61 42.2087C161.226 43.5818 160.089 44.4682 158.27 44.4682C155.962 44.4682 154.686 43.043 154.686 40.9921V41.0268Z" fill="#1C2F29"/>
<path d="M163.288 37.7578H164.565V44.3276H163.288V37.7578Z" fill="#1C2F29"/>
<path d="M167.975 42.7286L167.31 44.3276H165.981L168.902 37.7578H170.318L173.221 44.3276H171.892L171.228 42.7286H167.957H167.975ZM169.881 39.4785C169.794 39.2699 169.689 38.9744 169.619 38.7137H169.601C169.531 38.9744 169.426 39.2699 169.339 39.4785L168.377 41.8074H170.86L169.899 39.4785H169.881Z" fill="#1C2F29"/>
<path d="M175.933 37.7578V43.2848H179.623V44.3276H174.656V37.7578H175.933Z" fill="#1C2F29"/>
<path d="M32.7705 0V32.0404H28.0857V6.9613L19.4582 32.0404H13.1963V6.9613L4.56885 32.0404H0L9.60155 2.90438C10.1813 1.17558 11.8048 0 13.637 0C15.9794 0 17.8811 1.89015 17.8811 4.21827V22.9585L25.4418 0H32.7705Z" fill="#1C2F29"/>
<path d="M77.6696 7.60547L67.7201 37.8018H62.757L64.6588 32.0622L56.5879 7.60547H61.551L67.1403 24.5247L72.7064 7.60547H77.6696Z" fill="#1C2F29"/>
</svg>
