<svg width="1680" height="354" viewBox="0 0 1680 354" fill="none" xmlns="http://www.w3.org/2000/svg">
<path d="M510.563 101.354C493.206 79.7899 465.001 69.0078 432.456 69.0078C367.366 69.0078 321.804 116.449 321.804 185.454C321.804 254.459 369.536 301.901 441.134 301.901C486.046 301.901 493.206 295.431 512.733 284.649V235.052L508.394 239.365C493.206 252.303 467.17 260.929 443.304 260.929C404.25 260.929 376.045 239.365 369.536 202.705H534.429C540.938 159.577 534.429 127.231 512.733 103.51L510.563 101.354ZM369.536 161.734C376.045 129.387 399.911 109.98 432.456 109.98C465.001 109.98 486.697 129.387 488.867 161.734H369.536Z" fill="#2A4B40"/>
<path d="M849.027 69.0052C820.821 69.0052 796.955 79.7873 781.768 99.195V0H736.205V299.741H777.428V269.552C792.616 291.116 818.652 301.898 849.027 301.898C909.777 301.898 953.17 254.457 953.17 187.608C953.17 120.759 909.777 69.0052 849.027 69.0052ZM844.688 256.613C807.804 256.613 781.768 226.423 781.768 183.295C781.768 140.167 807.804 109.977 844.688 109.977C881.572 109.977 907.607 138.01 907.607 183.295C907.607 228.58 881.572 256.613 844.688 256.613Z" fill="#2A4B40"/>
<path d="M1081.2 69.0078C1013.94 69.0078 968.374 116.449 968.374 185.454C968.374 254.459 1016.11 301.901 1081.2 301.901C1146.28 301.901 1194.02 254.459 1194.02 185.454C1194.02 116.449 1148.45 69.0078 1081.2 69.0078ZM1081.2 256.616C1042.14 256.616 1013.94 226.426 1013.94 183.298C1013.94 140.169 1039.97 109.98 1081.2 109.98C1122.42 109.98 1148.45 140.169 1148.45 183.298C1148.45 226.426 1120.25 256.616 1081.2 256.616Z" fill="#2A4B40"/>
<path d="M1304.68 69.0052C1282.98 69.0052 1265.62 75.4745 1254.77 90.5694V0H1209.21V299.742H1254.77V155.262C1254.77 129.385 1269.96 112.134 1296 112.134C1322.03 112.134 1335.05 129.385 1335.05 155.262V299.742H1378.44V148.793C1378.44 101.351 1348.07 69.0052 1304.68 69.0052Z" fill="#2A4B40"/>
<path d="M1612.76 69.0078C1586.73 69.0078 1565.03 79.7899 1552.01 101.354C1541.17 81.9463 1519.47 69.0078 1493.43 69.0078C1467.4 69.0078 1454.38 77.6335 1441.36 92.7284V71.1642H1400.14V299.744H1445.7V155.264C1445.7 129.387 1460.89 112.136 1482.59 112.136C1504.28 112.136 1519.47 129.387 1519.47 155.264V299.744H1562.86V157.421C1562.86 131.544 1578.05 114.293 1599.75 114.293C1621.44 114.293 1636.63 131.544 1636.63 157.421V299.744H1680.02V150.952C1680.02 103.51 1656.16 69.0078 1612.76 69.0078Z" fill="#2A4B40"/>
<path d="M306.193 0V299.742H262.366V65.1237L181.655 299.742H123.074V65.1237L42.3634 299.742H-0.378662L89.4448 27.1708C94.8689 10.9977 110.057 0 127.197 0C149.11 0 166.901 17.6826 166.901 39.4624V214.779L237.632 0H306.193Z" fill="#2A4B40"/>
<path d="M726.226 71.1641L633.148 353.654H586.717L604.508 299.96L529.004 71.1641H575.435L627.723 229.445L679.795 71.1641H726.226Z" fill="#2A4B40"/>
</svg>
