<svg width="375" height="748" viewBox="0 0 375 748" fill="none" xmlns="http://www.w3.org/2000/svg">
<path d="M847.813 6.10352e-05L16 2.46755e-05C7.16343 2.42892e-05 -2.34448e-05 7.16348 -2.3831e-05 16L-2.85503e-05 123.964L663.612 123.964L-3.85291e-05 352.253L-4.57718e-05 517.947L663.612 517.947L-5.57507e-05 746.236L-6.10352e-05 867.131L770.961 613.067C816.706 597.725 847.813 554.768 847.813 506.287C847.813 444.305 797.798 393.983 736.194 393.983L240.315 393.983L847.813 193.923L847.813 6.10352e-05Z" fill="url(#paint0_linear_8150_19129)"/>
<defs>
<linearGradient id="paint0_linear_8150_19129" x1="423.906" y1="867.131" x2="423.907" y2="4.25056e-05" gradientUnits="userSpaceOnUse">
<stop stop-color="#CEDD62" stop-opacity="0"/>
<stop offset="1" stop-color="#CEDD62"/>
</linearGradient>
</defs>
</svg>
